<svg width="49" height="48" viewBox="0 0 49 48" fill="none" xmlns="http://www.w3.org/2000/svg">
<path d="M24.6689 0.5C21.5172 0.5 18.3964 1.12294 15.4845 2.33324C12.5727 3.54355 9.92699 5.31752 7.69838 7.55387C3.19751 12.0704 0.668945 18.1961 0.668945 24.5834C0.668945 35.2283 7.55695 44.2596 17.0849 47.4627C18.2849 47.6554 18.6689 46.9088 18.6689 46.2585V42.1884C12.0209 43.6334 10.6049 38.9612 10.6049 38.9612C9.50095 36.1676 7.94095 35.421 7.94095 35.421C5.75695 33.9278 8.10895 33.976 8.10895 33.976C10.5089 34.1446 11.7809 36.4566 11.7809 36.4566C13.8689 40.1172 17.3969 39.0335 18.7649 38.4555C18.9809 36.8901 19.6049 35.8304 20.2769 35.2283C14.9489 34.6262 9.35695 32.555 9.35695 23.3793C9.35695 20.706 10.2689 18.5626 11.8289 16.8527C11.5889 16.2506 10.7489 13.7459 12.0689 10.4946C12.0689 10.4946 14.0849 9.84437 18.6689 12.9511C20.5649 12.4213 22.6289 12.1564 24.6689 12.1564C26.7089 12.1564 28.7729 12.4213 30.6689 12.9511C35.2529 9.84437 37.2689 10.4946 37.2689 10.4946C38.5889 13.7459 37.7489 16.2506 37.5089 16.8527C39.0689 18.5626 39.9809 20.706 39.9809 23.3793C39.9809 32.5791 34.3649 34.6021 29.0129 35.2042C29.8769 35.9508 30.6689 37.4199 30.6689 39.6597V46.2585C30.6689 46.9088 31.0529 47.6794 32.2769 47.4627C41.8049 44.2355 48.6689 35.2283 48.6689 24.5834C48.6689 21.4208 48.0482 18.289 46.8421 15.3671C45.6359 12.4452 43.8681 9.79023 41.6395 7.55387C39.4109 5.31752 36.7652 3.54355 33.8534 2.33324C30.9415 1.12294 27.8207 0.5 24.6689 0.5Z" fill="white"/>
</svg>
