<svg width="314" height="234" viewBox="0 0 314 234" fill="none" xmlns="http://www.w3.org/2000/svg">
<g filter="url(#filter0_d_86_238)">
<rect width="41.8437" height="41.8437" transform="matrix(0.866025 0.5 -0.866025 0.5 115.417 4)" fill="white"/>
<rect width="41.8437" height="41.8437" transform="matrix(0.866025 0.5 0 1 79.1802 24.9219)" fill="#93AAFC"/>
<rect width="41.8437" height="41.8437" transform="matrix(0.866025 -0.5 0 1 115.417 45.8436)" fill="#9CD89F"/>
<rect width="41.8437" height="41.8437" transform="matrix(0.866025 0.5 -0.866025 0.5 79.3276 24.9219)" fill="white"/>
<rect width="41.8437" height="41.8437" transform="matrix(0.866025 0.5 0 1 43.0903 45.8438)" fill="#93AAFC"/>
<rect width="41.8437" height="41.8437" transform="matrix(0.866025 -0.5 0 1 79.3276 66.7655)" fill="#9CD89F"/>
<rect width="41.8437" height="41.8437" transform="matrix(0.866025 0.5 -0.866025 0.5 43.2373 45.8438)" fill="white"/>
<rect width="41.8437" height="41.8437" transform="matrix(0.866025 0.5 0 1 7 66.7655)" fill="#1A2E84"/>
<rect width="41.8437" height="41.8437" transform="matrix(0.866025 -0.5 0 1 43.2373 87.6874)" fill="#6580E1"/>
<rect width="41.8437" height="41.8437" transform="matrix(0.866025 0.5 -0.866025 0.5 79.3276 66.7655)" fill="white"/>
<rect width="41.8437" height="41.8437" transform="matrix(0.866025 0.5 0 1 43.0903 87.6874)" fill="#1A2E84"/>
<rect width="41.8437" height="41.8437" transform="matrix(0.866025 -0.5 0 1 79.3276 108.609)" fill="#6580E1"/>
<rect width="41.8437" height="41.8437" transform="matrix(0.866025 0.5 -0.866025 0.5 115.417 87.6873)" fill="white"/>
<rect width="41.8437" height="41.8437" transform="matrix(0.866025 0.5 0 1 79.1802 108.609)" fill="#1A2E84"/>
<rect width="41.8437" height="41.8437" transform="matrix(0.866025 -0.5 0 1 115.417 129.531)" fill="#9CD89F"/>
</g>
<g filter="url(#filter1_d_86_238)">
<rect width="41.8437" height="41.8437" transform="matrix(0.866025 0.5 -0.866025 0.5 198.582 56.3046)" fill="white"/>
<rect width="41.8437" height="41.8437" transform="matrix(0.866025 0.5 0 1 162.344 77.2263)" fill="#9CD89F"/>
<rect width="41.8437" height="41.8437" transform="matrix(0.866025 -0.5 0 1 198.582 98.1482)" fill="#6580E1"/>
<rect width="41.8437" height="41.8437" transform="matrix(0.866025 0.5 -0.866025 0.5 234.672 77.2263)" fill="white"/>
<rect width="41.8437" height="41.8437" transform="matrix(0.866025 0.5 0 1 198.435 98.1481)" fill="#9CD89F"/>
<rect width="41.8437" height="41.8437" transform="matrix(0.866025 -0.5 0 1 234.672 119.07)" fill="#6580E1"/>
<rect width="41.8437" height="41.8437" transform="matrix(0.866025 0.5 -0.866025 0.5 270.762 98.1482)" fill="white"/>
<rect width="41.8437" height="41.8437" transform="matrix(0.866025 0.5 0 1 234.524 119.07)" fill="#93AAFC"/>
<rect width="41.8437" height="41.8437" transform="matrix(0.866025 -0.5 0 1 270.762 139.992)" fill="#1A2E84"/>
<rect width="41.8437" height="41.8437" transform="matrix(0.866025 0.5 -0.866025 0.5 234.672 119.07)" fill="white"/>
<rect width="41.8437" height="41.8437" transform="matrix(0.866025 0.5 0 1 198.435 139.992)" fill="#93AAFC"/>
<rect width="41.8437" height="41.8437" transform="matrix(0.866025 -0.5 0 1 234.672 160.914)" fill="#1A2E84"/>
<rect width="41.8437" height="41.8437" transform="matrix(0.866025 0.5 -0.866025 0.5 198.582 139.992)" fill="white"/>
<rect width="41.8437" height="41.8437" transform="matrix(0.866025 0.5 0 1 162.344 160.914)" fill="#9CD89F"/>
<rect width="41.8437" height="41.8437" transform="matrix(0.866025 -0.5 0 1 198.582 181.835)" fill="#1A2E84"/>
</g>
<defs>
<filter id="filter0_d_86_238" x="-0.000488281" y="0" width="158.656" height="181.375" filterUnits="userSpaceOnUse" color-interpolation-filters="sRGB">
<feFlood flood-opacity="0" result="BackgroundImageFix"/>
<feColorMatrix in="SourceAlpha" type="matrix" values="0 0 0 0 0 0 0 0 0 0 0 0 0 0 0 0 0 0 127 0" result="hardAlpha"/>
<feOffset dy="3"/>
<feGaussianBlur stdDeviation="3.5"/>
<feComposite in2="hardAlpha" operator="out"/>
<feColorMatrix type="matrix" values="0 0 0 0 0 0 0 0 0 0 0 0 0 0 0 0 0 0 0.22 0"/>
<feBlend mode="normal" in2="BackgroundImageFix" result="effect1_dropShadow_86_238"/>
<feBlend mode="normal" in="SourceGraphic" in2="effect1_dropShadow_86_238" result="shape"/>
</filter>
<filter id="filter1_d_86_238" x="155.344" y="52.3046" width="158.655" height="181.375" filterUnits="userSpaceOnUse" color-interpolation-filters="sRGB">
<feFlood flood-opacity="0" result="BackgroundImageFix"/>
<feColorMatrix in="SourceAlpha" type="matrix" values="0 0 0 0 0 0 0 0 0 0 0 0 0 0 0 0 0 0 127 0" result="hardAlpha"/>
<feOffset dy="3"/>
<feGaussianBlur stdDeviation="3.5"/>
<feComposite in2="hardAlpha" operator="out"/>
<feColorMatrix type="matrix" values="0 0 0 0 0 0 0 0 0 0 0 0 0 0 0 0 0 0 0.22 0"/>
<feBlend mode="normal" in2="BackgroundImageFix" result="effect1_dropShadow_86_238"/>
<feBlend mode="normal" in="SourceGraphic" in2="effect1_dropShadow_86_238" result="shape"/>
</filter>
</defs>
</svg>
