<svg width="700" height="700" viewBox="0 0 700 700" fill="none" xmlns="http://www.w3.org/2000/svg">
<rect width="700" height="700" rx="24" fill="#040715"/>
<g filter="url(#filter0_d_28_51)">
<rect width="63.0476" height="63.0476" transform="matrix(0.866025 0.5 -0.866025 0.5 287.358 184)" fill="white"/>
<rect width="63.0476" height="63.0476" transform="matrix(0.866025 0.5 0 1 232.758 215.524)" fill="#93AAFC"/>
<rect width="63.0476" height="63.0476" transform="matrix(0.866025 -0.5 0 1 287.358 247.048)" fill="#9CD89F"/>
<rect width="63.0476" height="63.0476" transform="matrix(0.866025 0.5 -0.866025 0.5 232.98 215.524)" fill="white"/>
<rect width="63.0476" height="63.0476" transform="matrix(0.866025 0.5 0 1 178.379 247.048)" fill="#93AAFC"/>
<rect width="63.0476" height="63.0476" transform="matrix(0.866025 -0.5 0 1 232.98 278.572)" fill="#9CD89F"/>
<rect width="63.0476" height="63.0476" transform="matrix(0.866025 0.5 -0.866025 0.5 178.601 247.048)" fill="white"/>
<rect width="63.0476" height="63.0476" transform="matrix(0.866025 0.5 0 1 124 278.572)" fill="#1A2E84"/>
<rect width="63.0476" height="63.0476" transform="matrix(0.866025 -0.5 0 1 178.601 310.095)" fill="#6580E1"/>
<rect width="63.0476" height="63.0476" transform="matrix(0.866025 0.5 -0.866025 0.5 232.98 278.572)" fill="white"/>
<rect width="63.0476" height="63.0476" transform="matrix(0.866025 0.5 0 1 178.379 310.095)" fill="#1A2E84"/>
<rect width="63.0476" height="63.0476" transform="matrix(0.866025 -0.5 0 1 232.98 341.619)" fill="#6580E1"/>
<rect width="63.0476" height="63.0476" transform="matrix(0.866025 0.5 -0.866025 0.5 287.358 310.095)" fill="white"/>
<rect width="63.0476" height="63.0476" transform="matrix(0.866025 0.5 0 1 232.758 341.619)" fill="#1A2E84"/>
<rect width="63.0476" height="63.0476" transform="matrix(0.866025 -0.5 0 1 287.358 373.143)" fill="#9CD89F"/>
</g>
<g filter="url(#filter1_d_28_51)">
<rect width="63.0476" height="63.0476" transform="matrix(0.866025 0.5 -0.866025 0.5 412.666 262.809)" fill="white"/>
<rect width="63.0476" height="63.0476" transform="matrix(0.866025 0.5 0 1 358.064 294.333)" fill="#9CD89F"/>
<rect width="63.0476" height="63.0476" transform="matrix(0.866025 -0.5 0 1 412.666 325.857)" fill="#6580E1"/>
<rect width="63.0476" height="63.0476" transform="matrix(0.866025 0.5 -0.866025 0.5 467.045 294.333)" fill="white"/>
<rect width="63.0476" height="63.0476" transform="matrix(0.866025 0.5 0 1 412.444 325.857)" fill="#9CD89F"/>
<rect width="63.0476" height="63.0476" transform="matrix(0.866025 -0.5 0 1 467.045 357.381)" fill="#6580E1"/>
<rect width="63.0476" height="63.0476" transform="matrix(0.866025 0.5 -0.866025 0.5 521.423 325.857)" fill="white"/>
<rect width="63.0476" height="63.0476" transform="matrix(0.866025 0.5 0 1 466.822 357.381)" fill="#93AAFC"/>
<rect width="63.0476" height="63.0476" transform="matrix(0.866025 -0.5 0 1 521.423 388.905)" fill="#1A2E84"/>
<rect width="63.0476" height="63.0476" transform="matrix(0.866025 0.5 -0.866025 0.5 467.045 357.381)" fill="white"/>
<rect width="63.0476" height="63.0476" transform="matrix(0.866025 0.5 0 1 412.444 388.905)" fill="#93AAFC"/>
<rect width="63.0476" height="63.0476" transform="matrix(0.866025 -0.5 0 1 467.045 420.428)" fill="#1A2E84"/>
<rect width="63.0476" height="63.0476" transform="matrix(0.866025 0.5 -0.866025 0.5 412.666 388.905)" fill="white"/>
<rect width="63.0476" height="63.0476" transform="matrix(0.866025 0.5 0 1 358.064 420.429)" fill="#9CD89F"/>
<rect width="63.0476" height="63.0476" transform="matrix(0.866025 -0.5 0 1 412.666 451.952)" fill="#1A2E84"/>
</g>
<defs>
<filter id="filter0_d_28_51" x="117" y="180" width="231.959" height="266.19" filterUnits="userSpaceOnUse" color-interpolation-filters="sRGB">
<feFlood flood-opacity="0" result="BackgroundImageFix"/>
<feColorMatrix in="SourceAlpha" type="matrix" values="0 0 0 0 0 0 0 0 0 0 0 0 0 0 0 0 0 0 127 0" result="hardAlpha"/>
<feOffset dy="3"/>
<feGaussianBlur stdDeviation="3.5"/>
<feComposite in2="hardAlpha" operator="out"/>
<feColorMatrix type="matrix" values="0 0 0 0 0 0 0 0 0 0 0 0 0 0 0 0 0 0 0.22 0"/>
<feBlend mode="normal" in2="BackgroundImageFix" result="effect1_dropShadow_28_51"/>
<feBlend mode="normal" in="SourceGraphic" in2="effect1_dropShadow_28_51" result="shape"/>
</filter>
<filter id="filter1_d_28_51" x="351.064" y="258.809" width="231.959" height="266.191" filterUnits="userSpaceOnUse" color-interpolation-filters="sRGB">
<feFlood flood-opacity="0" result="BackgroundImageFix"/>
<feColorMatrix in="SourceAlpha" type="matrix" values="0 0 0 0 0 0 0 0 0 0 0 0 0 0 0 0 0 0 127 0" result="hardAlpha"/>
<feOffset dy="3"/>
<feGaussianBlur stdDeviation="3.5"/>
<feComposite in2="hardAlpha" operator="out"/>
<feColorMatrix type="matrix" values="0 0 0 0 0 0 0 0 0 0 0 0 0 0 0 0 0 0 0.22 0"/>
<feBlend mode="normal" in2="BackgroundImageFix" result="effect1_dropShadow_28_51"/>
<feBlend mode="normal" in="SourceGraphic" in2="effect1_dropShadow_28_51" result="shape"/>
</filter>
</defs>
</svg>
