<svg width="137" height="104" viewBox="0 0 137 104" fill="none" xmlns="http://www.w3.org/2000/svg">
<g filter="url(#filter0_d_307_284)">
<rect width="17.1429" height="17.1429" transform="matrix(0.866025 0.5 -0.866025 0.5 51.418 4)" fill="white"/>
<rect width="17.1429" height="17.1429" transform="matrix(0.866025 0.5 0 1 36.5713 12.5714)" fill="#93AAFC"/>
<rect width="17.1429" height="17.1429" transform="matrix(0.866025 -0.5 0 1 51.418 21.1429)" fill="#9CD89F"/>
<rect width="17.1429" height="17.1429" transform="matrix(0.866025 0.5 -0.866025 0.5 36.6328 12.5715)" fill="white"/>
<rect width="17.1429" height="17.1429" transform="matrix(0.866025 0.5 0 1 21.7861 21.1429)" fill="#93AAFC"/>
<rect width="17.1429" height="17.1429" transform="matrix(0.866025 -0.5 0 1 36.6328 29.7144)" fill="#9CD89F"/>
<rect width="17.1429" height="17.1429" transform="matrix(0.866025 0.5 -0.866025 0.5 21.8457 21.1429)" fill="white"/>
<rect width="17.1429" height="17.1429" transform="matrix(0.866025 0.5 0 1 7 29.7143)" fill="#1A2E84"/>
<rect width="17.1429" height="17.1429" transform="matrix(0.866025 -0.5 0 1 21.8457 38.2857)" fill="#6580E1"/>
<rect width="17.1429" height="17.1429" transform="matrix(0.866025 0.5 -0.866025 0.5 36.6328 29.7143)" fill="white"/>
<rect width="17.1429" height="17.1429" transform="matrix(0.866025 0.5 0 1 21.7861 38.2857)" fill="#1A2E84"/>
<rect width="17.1429" height="17.1429" transform="matrix(0.866025 -0.5 0 1 36.6328 46.8572)" fill="#6580E1"/>
<rect width="17.1429" height="17.1429" transform="matrix(0.866025 0.5 -0.866025 0.5 51.418 38.2858)" fill="white"/>
<rect width="17.1429" height="17.1429" transform="matrix(0.866025 0.5 0 1 36.5713 46.8572)" fill="#1A2E84"/>
<rect width="17.1429" height="17.1429" transform="matrix(0.866025 -0.5 0 1 51.418 55.4287)" fill="#9CD89F"/>
</g>
<g filter="url(#filter1_d_307_284)">
<rect width="17.1429" height="17.1429" transform="matrix(0.866025 0.5 -0.866025 0.5 85.4883 25.4286)" fill="white"/>
<rect width="17.1429" height="17.1429" transform="matrix(0.866025 0.5 0 1 70.6436 34.0001)" fill="#9CD89F"/>
<rect width="17.1429" height="17.1429" transform="matrix(0.866025 -0.5 0 1 85.4883 42.5715)" fill="#6580E1"/>
<rect width="17.1429" height="17.1429" transform="matrix(0.866025 0.5 -0.866025 0.5 100.275 34.0001)" fill="white"/>
<rect width="17.1429" height="17.1429" transform="matrix(0.866025 0.5 0 1 85.4297 42.5714)" fill="#9CD89F"/>
<rect width="17.1429" height="17.1429" transform="matrix(0.866025 -0.5 0 1 100.275 51.1429)" fill="#6580E1"/>
<rect width="17.1429" height="17.1429" transform="matrix(0.866025 0.5 -0.866025 0.5 115.06 42.5715)" fill="white"/>
<rect width="17.1429" height="17.1429" transform="matrix(0.866025 0.5 0 1 100.214 51.1429)" fill="#93AAFC"/>
<rect width="17.1429" height="17.1429" transform="matrix(0.866025 -0.5 0 1 115.06 59.7144)" fill="#1A2E84"/>
<rect width="17.1429" height="17.1429" transform="matrix(0.866025 0.5 -0.866025 0.5 100.275 51.1429)" fill="white"/>
<rect width="17.1429" height="17.1429" transform="matrix(0.866025 0.5 0 1 85.4297 59.7144)" fill="#93AAFC"/>
<rect width="17.1429" height="17.1429" transform="matrix(0.866025 -0.5 0 1 100.275 68.2858)" fill="#1A2E84"/>
<rect width="17.1429" height="17.1429" transform="matrix(0.866025 0.5 -0.866025 0.5 85.4883 59.7143)" fill="white"/>
<rect width="17.1429" height="17.1429" transform="matrix(0.866025 0.5 0 1 70.6436 68.2857)" fill="#9CD89F"/>
<rect width="17.1429" height="17.1429" transform="matrix(0.866025 -0.5 0 1 85.4883 76.8572)" fill="#1A2E84"/>
</g>
<defs>
<filter id="filter0_d_307_284" x="0" y="0" width="73.2637" height="82.5716" filterUnits="userSpaceOnUse" color-interpolation-filters="sRGB">
<feFlood flood-opacity="0" result="BackgroundImageFix"/>
<feColorMatrix in="SourceAlpha" type="matrix" values="0 0 0 0 0 0 0 0 0 0 0 0 0 0 0 0 0 0 127 0" result="hardAlpha"/>
<feOffset dy="3"/>
<feGaussianBlur stdDeviation="3.5"/>
<feComposite in2="hardAlpha" operator="out"/>
<feColorMatrix type="matrix" values="0 0 0 0 0 0 0 0 0 0 0 0 0 0 0 0 0 0 0.22 0"/>
<feBlend mode="normal" in2="BackgroundImageFix" result="effect1_dropShadow_307_284"/>
<feBlend mode="normal" in="SourceGraphic" in2="effect1_dropShadow_307_284" result="shape"/>
</filter>
<filter id="filter1_d_307_284" x="63.6426" y="21.4286" width="73.2627" height="82.5714" filterUnits="userSpaceOnUse" color-interpolation-filters="sRGB">
<feFlood flood-opacity="0" result="BackgroundImageFix"/>
<feColorMatrix in="SourceAlpha" type="matrix" values="0 0 0 0 0 0 0 0 0 0 0 0 0 0 0 0 0 0 127 0" result="hardAlpha"/>
<feOffset dy="3"/>
<feGaussianBlur stdDeviation="3.5"/>
<feComposite in2="hardAlpha" operator="out"/>
<feColorMatrix type="matrix" values="0 0 0 0 0 0 0 0 0 0 0 0 0 0 0 0 0 0 0.22 0"/>
<feBlend mode="normal" in2="BackgroundImageFix" result="effect1_dropShadow_307_284"/>
<feBlend mode="normal" in="SourceGraphic" in2="effect1_dropShadow_307_284" result="shape"/>
</filter>
</defs>
</svg>
